<svg xmlns="http://www.w3.org/2000/svg" viewBox="0 0 700 350" width="700" height="350"><path d="M234.2,330.6L233.6,331.6L233.0,332.5L228.9,332.2L224.6,332.3L222.2,331.7L222.2,331.6L221.1,331.1L225.5,331.1L229.7,331.3L231.1,330.5L232.1,329.8L234.2,330.6ZM40.4,329.6L36.7,329.8L34.1,329.2L33.0,328.5L32.9,328.4L31.7,327.8L31.7,327.8L32.8,327.1L36.5,327.4L38.4,328.0L39.9,328.7L40.4,329.6ZM262.2,326.8L264.6,327.6L265.4,328.8L265.7,329.6L265.7,330.6L262.7,331.2L259.6,331.7L255.9,332.2L251.8,332.5L247.2,332.4L244.7,331.8L245.0,331.0L249.2,330.5L250.9,329.8L252.1,329.0L252.9,328.2L254.1,327.6L255.4,326.8L255.4,326.8L256.4,326.8L259.3,326.3L262.2,326.8ZM114.3,317.9L116.8,318.2L119.1,317.9L118.0,318.6L116.2,319.1L113.5,318.9L111.6,318.2L111.6,318.2L112.0,317.6L114.3,317.9ZM105.9,317.9L108.8,318.6L107.7,318.6L105.2,318.4L102.5,317.8L102.5,317.8L103.9,317.4L105.9,317.9ZM157.5,314.9L159.7,315.1L161.8,314.9L162.9,316.0L161.4,315.9L159.1,315.9L156.7,315.9L154.0,316.0L152.1,315.6L151.0,314.8L151.0,314.8L152.2,314.5L154.7,314.7L157.5,314.9ZM216.9,313.0L217.1,313.8L216.8,314.6L216.3,315.3L214.0,315.6L211.8,316.0L209.2,315.9L210.2,315.2L207.9,315.4L205.7,315.7L204.3,315.1L204.1,314.3L206.3,313.6L206.3,313.6L207.6,313.4L209.9,313.4L210.4,312.4L210.5,311.7L210.5,310.2L211.6,309.2L213.4,308.9L214.4,309.7L214.9,310.4L215.7,311.3L216.4,312.1L216.9,313.0ZM236.0,299.7L235.2,300.2L233.7,299.9L232.1,300.0L230.8,300.5L229.4,301.0L228.4,301.6L228.2,302.3L228.3,303.1L229.2,303.7L227.9,304.2L226.1,304.3L225.0,305.0L223.8,305.6L222.6,306.4L222.3,307.1L223.0,307.9L224.0,308.5L225.6,309.0L227.1,309.6L227.9,310.4L228.3,311.1L228.9,311.9L229.8,312.5L230.4,313.2L230.7,315.0L231.2,315.7L231.4,316.5L232.0,317.3L231.7,318.3L230.7,319.1L229.5,319.7L226.9,320.0L226.1,320.7L224.9,321.3L221.9,322.1L219.3,322.4L216.9,322.8L214.3,323.2L212.7,324.0L209.6,324.1L206.2,324.0L203.1,324.2L199.8,324.2L200.4,324.9L203.4,325.3L205.6,325.8L206.8,326.5L204.6,327.1L201.3,326.9L198.5,327.4L198.4,328.2L198.3,329.0L200.6,329.6L201.0,330.3L203.5,331.1L207.6,331.4L211.1,331.9L213.9,332.5L217.4,333.1L222.2,333.4L227.0,334.0L230.3,334.5L233.9,335.2L235.8,336.1L236.8,336.8L239.2,336.1L242.3,335.6L245.7,334.9L249.8,334.5L253.2,333.9L258.1,333.9L262.8,334.1L266.8,334.6L268.0,333.8L270.7,333.2L275.6,333.2L279.5,332.7L283.1,332.3L287.2,332.1L291.5,331.7L294.5,331.2L293.1,330.5L292.3,329.8L292.3,329.1L288.5,329.2L284.5,329.5L280.7,329.5L280.2,328.8L280.4,327.3L281.3,326.9L284.1,326.4L287.4,326.0L289.7,325.4L292.1,324.8L293.8,324.1L296.5,323.7L299.1,323.5L300.5,323.3L303.5,323.2L306.3,323.0L308.7,322.6L311.1,322.1L313.2,321.7L315.9,321.1L317.6,320.4L319.5,319.9L320.0,319.1L318.0,318.6L318.7,317.8L320.0,317.2L322.0,316.8L324.1,316.4L326.1,315.8L327.6,315.0L328.6,314.1L330.0,313.6L332.3,313.7L333.3,314.3L335.6,314.4L335.7,313.7L336.6,312.9L338.7,313.1L339.2,313.8L341.6,314.0L344.1,313.6L346.5,313.4L348.7,313.5L349.6,314.3L351.7,313.6L353.7,313.3L355.9,313.0L358.0,312.8L360.0,312.3L362.2,312.0L363.9,311.6L365.1,310.9L366.5,311.4L368.5,311.1L369.9,312.0L371.0,312.7L373.2,312.4L374.1,311.6L376.1,311.1L378.7,311.2L379.4,311.9L381.0,311.2L383.1,310.9L385.4,310.9L387.4,310.9L389.6,311.1L391.7,311.2L392.6,311.9L393.9,312.5L396.0,312.1L398.3,312.0L400.5,312.0L402.7,312.0L404.6,311.7L406.7,311.5L408.4,311.0L410.2,310.6L412.2,310.4L413.7,309.9L414.8,308.8L415.9,308.2L417.9,308.5L418.6,309.2L420.3,309.6L422.3,309.5L423.7,310.2L425.2,310.7L427.1,310.2L427.8,309.4L429.6,309.0L431.6,308.4L433.5,308.1L435.8,307.7L437.3,307.3L438.9,306.9L440.4,306.4L442.3,306.7L444.0,306.0L445.3,305.5L447.1,305.5L448.7,305.0L449.1,304.4L450.7,303.8L452.3,303.4L454.2,303.1L456.0,303.0L457.8,303.1L459.6,303.3L461.1,303.8L461.3,304.7L463.0,305.3L464.2,305.8L466.5,306.1L467.8,306.6L469.4,307.1L471.3,307.2L472.9,306.9L474.5,306.1L476.4,306.5L478.3,306.7L480.1,306.9L482.0,307.1L484.0,307.1L485.6,309.1L485.5,309.6L485.2,310.5L483.4,311.0L481.9,311.7L482.1,312.5L484.3,312.4L484.0,313.2L483.0,313.9L482.1,314.7L483.6,315.3L485.9,315.5L488.1,315.2L489.2,314.4L489.8,313.7L490.9,313.1L492.1,312.5L492.6,311.8L493.6,310.9L494.8,310.7L497.1,310.6L499.0,310.4L501.0,310.1L501.9,309.3L502.5,308.6L503.8,307.9L505.7,307.4L507.4,307.0L508.4,306.3L509.5,306.0L511.0,305.7L512.9,305.9L514.6,305.7L516.6,305.5L518.7,305.6L520.1,305.0L521.1,303.7L521.8,304.3L522.7,305.2L524.4,305.6L526.2,305.7L528.1,305.5L530.1,305.6L531.9,305.7L533.1,305.5L534.8,305.6L536.2,306.0L538.0,305.8L540.1,305.8L541.9,305.5L543.9,305.8L545.2,305.1L546.2,304.5L547.5,303.9L550.0,302.5L551.2,302.8L552.7,303.3L554.0,304.0L556.5,305.2L558.4,305.2L560.2,305.2L562.3,305.0L564.3,304.7L565.9,304.2L567.3,303.6L569.5,303.5L570.9,303.1L572.4,303.5L573.4,304.1L574.8,304.7L576.9,304.6L578.2,305.1L580.6,305.6L583.0,305.8L585.0,305.6L586.6,305.0L587.8,304.4L589.6,304.3L591.3,304.5L593.4,304.7L595.2,304.4L596.9,304.4L598.7,304.6L600.5,304.8L602.2,304.5L604.3,304.2L606.3,304.1L608.5,304.1L610.3,303.9L612.0,303.7L612.6,302.8L612.6,302.0L613.9,302.5L614.2,303.4L614.8,304.2L615.6,304.8L617.3,305.2L619.5,305.1L622.0,305.0L623.8,304.9L626.3,304.9L628.2,304.9L630.7,305.0L632.9,305.1L634.3,305.7L633.9,306.4L635.1,307.0L637.2,307.5L639.4,308.0L641.9,308.3L644.6,308.6L646.5,308.9L648.7,309.0L650.0,308.3L651.7,308.8L653.2,309.5L654.9,309.9L657.3,310.1L659.5,310.3L660.5,311.1L662.7,311.6L664.2,312.2L666.3,312.5L668.6,312.5L670.7,312.6L673.0,312.6L675.3,312.7L677.5,313.0L679.5,313.5L681.5,313.8L682.9,314.4L682.7,315.2L681.6,315.9L680.8,316.7L680.1,317.4L679.2,318.2L676.6,318.5L675.5,319.2L673.0,319.6L672.1,320.4L670.8,321.1L669.3,321.7L668.5,322.5L668.0,323.2L667.9,324.1L667.9,324.8L669.0,325.6L669.4,326.3L670.3,327.0L674.0,327.3L674.7,328.1L671.2,328.4L668.2,328.9L664.5,328.9L662.9,330.0L662.6,330.9L661.7,331.7L660.7,332.4L663.3,333.0L664.3,333.8L666.0,334.6L668.3,335.2L671.0,335.8L674.0,336.4L678.4,337.0L679.4,338.0L685.0,338.4L685.4,338.6L686.8,339.1L692.2,338.6L696.7,339.3L700.0,339.7L700.0,350.0L0.0,350.0L0.0,339.7L0.1,339.7L1.8,338.6L5.3,339.2L5.6,339.1L6.1,339.0L6.8,338.8L7.3,338.6L7.6,338.5L7.9,338.5L8.1,338.6L10.9,339.4L13.4,338.6L13.8,338.5L19.5,338.1L21.4,338.6L22.3,338.8L25.2,339.4L30.8,339.9L35.1,340.5L42.6,341.0L48.2,340.5L56.5,340.9L61.2,341.5L66.3,340.9L71.7,340.4L72.2,339.4L64.5,339.4L58.2,338.9L56.6,338.1L51.4,337.7L51.7,336.9L52.4,336.1L53.2,335.3L52.8,334.5L49.5,334.0L48.0,333.3L45.0,332.7L49.8,332.8L54.3,332.5L57.1,333.2L60.5,332.6L63.7,331.9L65.3,331.2L64.6,330.4L62.1,329.9L59.2,329.3L55.2,329.2L51.7,328.9L48.0,328.7L46.7,328.0L44.2,327.4L42.7,326.7L42.1,324.5L43.0,324.7L44.8,325.3L48.0,325.1L51.1,324.8L52.7,325.7L55.7,325.5L58.3,325.1L60.8,324.5L63.0,323.9L65.9,323.7L65.8,323.0L65.1,322.3L65.7,321.6L68.2,321.2L69.4,321.9L72.3,321.5L74.6,321.0L77.4,321.0L80.0,320.8L82.6,320.3L84.7,319.9L87.1,319.5L88.6,319.6L89.9,319.7L92.8,319.5L95.4,319.8L98.1,319.8L100.6,319.5L103.3,319.7L106.2,319.9L108.9,319.8L111.7,319.9L114.6,319.9L117.2,319.8L119.2,319.2L121.6,318.9L124.0,319.4L126.3,319.0L128.4,318.3L129.7,318.9L130.4,319.6L131.6,320.3L133.7,319.7L136.0,320.4L138.6,320.7L140.9,321.2L143.6,321.1L146.1,320.7L149.0,320.8L151.6,321.1L154.3,321.4L155.3,320.6L154.1,319.9L153.1,319.2L150.6,319.1L149.5,318.4L149.1,317.6L148.4,316.2L149.9,316.5L152.4,316.6L154.9,316.5L157.2,316.8L159.2,317.3L160.1,318.0L162.7,318.1L165.2,317.9L167.9,317.5L170.3,317.3L172.2,317.7L174.8,317.6L176.5,316.1L178.1,317.0L180.3,317.3L182.7,317.1L184.3,317.9L186.9,318.0L189.3,318.2L191.6,318.6L193.1,317.9L193.9,317.2L195.8,318.0L198.5,317.8L200.5,318.2L201.8,318.8L204.4,318.6L206.4,318.2L208.4,317.7L210.7,317.5L213.5,317.2L216.0,317.0L217.9,316.5L219.0,315.9L219.5,315.1L219.2,314.3L218.6,313.5L217.9,312.8L217.3,312.0L216.8,311.3L216.7,310.6L216.9,309.8L217.8,309.1L218.6,308.3L218.9,307.5L218.5,306.7L218.3,305.9L219.2,305.0L220.3,304.5L221.6,303.7L222.9,303.1L224.5,302.6L225.2,301.7L226.3,301.2L227.5,300.7L229.4,300.6L230.6,300.0L232.0,299.6L233.6,299.4L235.0,298.9L236.1,298.3L237.6,298.0L238.7,298.5L238.0,299.2L236.0,299.7ZM218.3,279.7L220.8,280.9L223.5,281.4L222.6,282.3L220.8,282.4L219.8,281.7L219.2,282.5L217.5,283.1L215.4,282.9L214.0,282.3L211.9,282.0L209.5,281.0L207.5,279.9L204.8,277.7L206.4,278.1L209.2,279.4L211.7,280.1L212.7,279.3L213.4,277.9L215.2,277.1L216.5,277.3L216.5,277.3L217.3,278.2L218.3,279.7ZM236.2,274.4L237.7,275.2L237.1,275.9L234.5,276.5L233.6,275.8L232.0,276.7L231.0,275.8L233.3,274.7L235.0,275.1L236.2,274.4ZM486.7,271.7L483.7,271.8L483.6,270.7L483.9,269.9L484.0,269.5L485.3,270.2L487.1,270.4L487.2,270.8L486.7,271.7ZM632.7,254.3L634.6,255.0L635.7,254.7L637.2,254.3L638.3,254.5L638.5,256.8L637.8,257.5L637.6,259.0L636.9,258.5L635.6,259.8L635.2,259.7L634.0,259.7L632.8,258.0L632.5,256.7L631.4,255.0L631.4,254.1L632.7,254.3ZM686.4,254.6L686.9,255.4L688.3,254.6L688.8,255.4L688.8,256.2L688.1,257.1L686.8,258.6L685.8,259.3L686.5,260.3L685.0,260.3L683.4,261.0L682.9,262.3L681.8,264.3L680.2,265.1L679.3,265.7L677.5,265.6L676.2,265.0L674.1,264.9L673.8,264.2L674.8,262.7L677.3,260.8L678.5,260.4L679.9,259.7L681.6,258.7L682.7,257.7L683.6,256.2L684.3,255.7L684.6,254.6L686.0,253.7L686.4,254.6ZM689.5,245.3L690.9,247.4L691.0,246.0L691.9,246.6L692.1,248.0L693.7,248.7L695.0,248.8L696.1,248.1L697.1,248.3L696.6,250.0L696.1,251.2L694.6,251.1L694.0,251.7L694.2,252.5L693.9,252.9L693.2,254.0L692.2,255.3L690.7,256.1L690.4,255.6L689.6,255.3L690.7,253.7L690.1,252.6L688.0,251.8L688.0,251.1L689.5,250.4L689.8,248.9L689.7,247.7L688.9,246.4L689.0,246.0L688.0,245.2L686.5,243.5L685.7,242.1L686.4,242.0L687.5,243.1L689.0,243.6L689.5,245.3ZM675.0,218.1L674.2,218.6L673.1,218.0L671.8,217.2L670.5,216.1L669.2,214.8L668.9,214.1L669.8,214.1L670.9,214.8L671.7,215.4L672.3,216.0L673.9,217.2L675.0,218.1ZM696.8,208.7L697.5,209.3L697.2,210.3L696.0,210.6L694.9,210.3L694.7,209.5L695.5,208.8L696.4,209.0L696.8,208.7ZM698.8,207.7L697.5,208.1L697.3,207.4L698.2,207.0L698.9,206.8L700.0,206.2L700.0,207.2L698.8,207.7ZM0.2,207.1L0.0,207.2L0.0,206.2L0.4,206.2L0.2,207.1ZM676.4,207.0L675.7,207.3L675.1,206.4L675.1,205.9L676.4,207.0ZM674.9,204.0L675.2,205.6L674.7,205.4L674.3,205.5L674.0,204.9L674.0,203.4L674.9,204.0ZM447.3,201.4L447.6,203.7L448.1,204.6L448.0,205.5L447.6,206.1L447.0,205.0L446.6,205.5L447.0,207.0L446.8,207.8L446.2,208.3L446.1,209.9L445.4,212.2L444.4,214.9L443.2,218.5L442.5,221.2L441.6,223.5L440.0,224.0L438.3,224.8L437.2,224.3L435.6,223.6L435.1,222.6L435.0,220.8L434.3,219.3L434.1,217.9L434.5,216.5L435.3,216.2L435.4,215.5L436.3,214.0L436.5,212.8L436.0,211.9L435.6,210.6L435.5,208.9L436.2,207.8L436.4,206.5L437.4,206.5L438.5,206.1L439.2,205.7L440.1,205.7L441.2,204.6L442.8,203.4L443.3,202.4L443.1,201.6L443.9,201.8L445.0,200.5L445.0,199.3L445.7,198.4L446.3,199.2L446.9,200.1L447.3,201.4ZM629.1,201.8L629.8,203.3L631.1,202.6L631.7,203.4L632.7,204.1L632.5,205.0L632.9,206.7L633.2,207.6L633.7,207.9L634.2,209.5L634.0,210.5L634.6,211.9L636.7,212.9L638.1,213.8L639.4,214.6L639.2,215.1L640.3,216.3L641.0,218.4L641.8,218.0L642.6,218.9L643.1,218.6L643.4,220.6L644.8,221.8L645.7,222.6L647.2,224.1L647.8,225.7L647.8,226.8L647.7,228.0L648.6,229.7L648.5,231.4L648.2,232.3L647.6,234.0L647.7,235.1L647.3,236.5L646.4,238.3L645.0,239.2L644.3,240.8L643.6,241.7L643.1,243.4L642.3,244.4L641.8,245.8L641.6,247.2L641.7,247.8L640.5,248.4L638.4,248.5L636.6,249.3L635.7,250.1L634.5,250.9L632.9,250.0L631.7,249.7L632.0,248.7L630.9,249.1L629.2,250.5L627.6,249.9L626.5,249.6L625.3,249.5L623.5,248.9L622.2,247.7L621.8,246.3L621.4,245.3L620.4,244.5L618.6,244.2L619.2,243.3L618.7,241.9L617.8,243.2L616.1,243.6L617.1,242.5L617.4,241.4L618.1,240.4L618.0,239.0L616.4,240.6L615.2,241.3L614.4,242.8L612.9,242.0L613.0,241.0L611.7,239.6L610.7,238.9L611.1,238.4L608.6,237.2L607.2,237.2L605.4,236.2L601.9,236.4L599.4,237.1L597.1,237.8L595.3,237.6L593.2,238.6L591.5,239.1L591.2,240.1L590.4,240.9L588.8,240.9L587.6,241.1L585.9,240.8L584.5,241.0L583.1,241.1L582.0,242.1L581.4,242.0L580.4,242.6L579.5,243.2L578.1,243.1L576.8,243.1L574.7,241.9L573.7,241.5L573.7,240.4L574.7,240.1L575.0,239.7L574.9,239.0L575.2,237.6L575.0,236.5L573.9,234.5L573.6,233.4L573.7,232.3L572.9,231.0L572.9,230.4L572.0,229.7L571.8,228.2L570.7,226.6L570.4,225.8L571.2,226.6L570.6,224.8L571.5,225.4L572.1,226.1L572.1,225.1L571.1,223.6L570.9,223.0L570.5,222.4L570.7,221.3L571.1,220.8L571.4,219.8L571.2,218.7L572.0,217.3L572.1,218.8L572.9,217.4L574.5,216.8L575.5,216.0L576.9,215.3L577.8,215.1L578.4,215.3L579.9,214.6L581.1,214.4L581.4,214.0L581.9,213.8L583.0,213.8L585.0,213.3L586.1,212.4L586.6,211.4L587.7,210.4L587.8,209.6L587.8,208.6L589.2,206.9L590.0,208.6L590.8,208.2L590.1,207.3L590.8,206.3L591.6,206.7L591.8,205.3L592.9,204.3L593.4,203.5L594.4,203.2L594.4,202.7L595.2,202.9L595.3,202.4L596.1,202.1L597.1,201.9L598.5,202.8L599.6,203.9L600.8,203.9L602.0,204.1L601.6,203.0L602.6,201.5L603.4,201.0L603.1,200.5L604.0,199.4L605.2,198.7L606.2,198.9L607.8,198.6L607.8,197.6L606.3,196.9L607.4,196.6L608.6,197.1L609.7,197.9L611.3,198.4L611.9,198.2L613.1,198.8L614.2,198.3L614.9,198.4L615.4,198.1L616.3,199.0L615.8,200.1L615.0,200.8L614.4,200.9L614.6,201.7L614.0,202.7L613.3,203.6L613.5,204.2L615.0,205.2L616.5,205.9L617.5,206.5L618.9,207.7L619.5,207.7L620.5,208.2L620.8,208.8L622.6,209.4L623.9,208.8L624.3,207.7L624.7,206.9L624.9,205.8L625.5,204.3L625.3,203.3L625.4,202.7L625.2,201.6L625.4,200.2L625.8,199.8L625.5,199.1L626.0,198.1L626.3,197.0L626.4,196.5L627.1,195.7L627.7,196.7L627.8,197.9L628.3,198.1L628.4,199.0L629.1,200.0L629.2,201.1L629.1,201.8ZM665.2,195.4L665.8,196.1L664.4,196.0L663.7,194.8L664.8,195.3L665.2,195.4ZM584.7,194.9L583.9,194.9L581.3,193.6L583.1,193.2L584.2,193.8L584.8,194.4L584.7,194.9ZM662.8,194.2L662.0,194.2L660.8,194.0L660.4,193.7L660.5,193.0L661.8,193.3L662.4,193.7L662.8,194.2ZM664.4,193.7L664.1,194.0L662.6,192.3L662.2,191.2L662.9,191.2L663.6,192.7L664.4,193.7ZM592.0,194.7L590.3,195.1L590.1,194.9L590.2,194.3L591.1,193.1L593.0,192.3L593.2,191.8L594.9,191.4L596.3,191.3L596.9,191.1L597.6,191.3L596.9,191.9L594.9,192.7L593.2,193.3L592.0,194.7ZM579.3,190.7L580.0,191.3L581.2,191.1L581.6,191.9L579.4,192.3L578.0,192.6L577.0,192.6L577.7,191.4L578.7,191.4L579.3,190.7ZM589.0,190.7L588.7,191.8L585.8,192.4L583.2,192.1L583.2,191.4L584.7,191.0L585.9,191.6L587.2,191.5L589.0,190.7ZM660.9,191.2L661.0,191.6L659.4,190.8L658.4,190.1L657.6,189.4L657.9,189.2L658.8,189.7L660.4,190.6L660.9,191.2ZM656.3,189.3L655.9,189.4L655.1,189.0L654.3,188.2L654.4,187.8L655.5,188.7L656.3,189.3ZM561.2,188.2L564.9,188.4L565.4,187.6L569.0,188.5L569.7,189.8L572.6,190.1L575.0,191.3L572.8,192.0L570.6,191.2L568.9,191.3L566.8,191.1L565.0,190.8L562.8,190.1L561.3,189.9L560.5,190.1L557.0,189.3L556.7,188.5L554.9,188.3L556.2,186.5L558.6,186.6L560.1,187.3L560.9,187.5L561.2,188.2ZM612.0,187.1L611.0,188.4L610.8,186.9L611.1,186.2L611.5,185.6L612.0,186.2L612.0,187.1ZM653.1,188.3L652.6,188.5L651.7,187.7L650.9,186.5L650.4,185.0L650.7,184.8L650.9,185.4L651.5,185.8L652.5,187.1L653.4,187.7L653.1,188.3ZM645.5,185.7L644.5,185.8L644.2,186.4L643.1,186.8L642.1,187.3L641.1,187.3L639.5,186.7L638.4,186.2L638.6,185.6L640.3,185.9L641.4,185.7L641.7,184.8L641.9,184.7L642.1,185.8L643.2,185.6L643.8,184.9L644.9,184.2L644.7,183.1L645.8,183.1L646.2,183.4L646.2,184.5L645.5,185.7ZM597.4,181.7L596.7,182.4L595.4,182.0L595.0,181.2L596.9,181.1L597.4,181.7ZM603.7,181.0L604.4,182.5L602.8,181.7L601.1,181.5L600.0,181.7L598.7,181.6L599.2,180.5L601.6,180.4L603.7,181.0ZM647.8,183.7L647.2,184.3L646.8,183.1L646.3,182.4L645.5,181.7L644.4,180.9L643.0,180.3L643.5,179.9L644.5,180.4L645.2,180.8L646.0,181.3L646.8,182.1L647.5,182.7L647.8,183.7ZM610.8,177.2L611.4,180.4L613.4,181.5L615.0,179.5L617.2,178.3L619.0,178.3L620.6,179.0L622.1,179.7L624.2,180.1L627.5,181.4L631.1,182.5L632.5,183.5L633.6,184.5L633.9,185.6L637.1,186.8L637.6,187.9L635.8,188.1L636.2,189.4L637.9,190.6L639.2,192.7L640.3,192.6L640.2,193.5L641.7,193.8L641.2,194.2L643.2,195.0L643.0,195.6L641.7,195.7L641.2,195.2L639.6,195.0L637.6,194.7L636.1,193.5L635.0,192.4L634.0,190.7L631.4,189.8L629.8,190.4L628.6,191.0L628.9,192.5L627.3,193.1L626.2,192.8L624.2,192.7L622.5,191.1L620.5,190.7L620.0,191.3L617.6,191.4L618.4,189.8L619.6,189.2L619.1,187.1L618.2,185.5L614.4,183.8L612.8,183.7L609.9,181.9L609.3,182.8L608.6,183.0L608.1,182.3L608.1,181.4L606.6,180.5L608.7,179.8L610.1,179.8L610.0,179.3L607.1,179.3L606.3,178.1L604.6,177.8L603.8,176.8L606.4,176.4L607.4,175.7L610.5,176.5L610.8,177.2ZM593.5,172.2L592.0,174.2L590.5,174.5L588.6,174.2L585.4,174.3L583.7,174.5L583.4,176.0L585.2,177.7L586.2,176.9L589.8,176.2L589.7,177.1L588.8,176.8L588.0,177.9L586.3,178.7L588.1,181.2L587.8,181.9L589.5,184.1L589.5,185.4L588.4,186.0L587.7,185.3L588.6,183.7L586.7,184.4L586.2,183.9L586.5,183.1L585.1,182.0L585.2,180.1L583.9,180.7L584.1,183.0L584.2,185.7L582.9,186.0L582.1,185.5L582.7,183.7L582.4,181.8L581.5,181.8L580.9,180.4L581.7,179.2L582.0,177.6L583.0,174.7L583.4,173.9L585.1,172.5L586.6,173.0L589.0,173.3L591.3,173.2L593.2,171.8L593.5,172.2ZM600.2,172.8L600.1,174.5L599.1,174.3L598.8,175.5L599.6,176.5L599.1,176.7L598.3,175.5L597.7,173.0L598.1,171.5L598.8,170.8L598.9,171.8L600.0,172.0L600.2,172.8ZM555.8,186.4L553.6,186.4L552.0,184.8L549.5,183.2L548.6,182.0L547.2,180.4L546.2,179.0L544.7,176.3L543.0,174.6L542.4,173.0L541.7,171.5L540.0,170.2L539.0,168.6L537.5,167.5L535.5,165.3L535.3,164.3L536.5,164.4L539.6,164.8L541.3,166.7L542.8,168.0L543.8,168.8L545.7,170.9L547.7,170.9L549.3,172.3L550.4,173.9L551.9,174.8L551.1,176.4L552.2,177.1L552.9,177.1L553.3,178.5L553.9,179.6L555.4,179.7L556.3,181.0L555.8,183.4L555.8,186.4ZM579.2,171.4L581.4,173.2L579.1,173.5L578.4,174.8L578.5,176.6L576.6,177.9L576.6,179.8L575.8,182.8L575.6,182.1L573.3,183.0L572.6,181.8L571.2,181.7L570.2,181.1L567.9,181.8L567.2,180.8L565.9,180.9L564.3,180.7L564.0,178.1L563.1,177.6L562.1,175.9L561.9,174.2L562.1,172.4L563.2,171.1L564.7,171.8L566.2,171.4L566.6,169.8L567.4,169.4L569.7,169.0L571.1,167.4L572.1,166.2L572.8,165.5L574.5,164.4L576.0,163.1L577.0,161.5L577.8,161.5L578.8,162.5L578.8,163.4L580.1,163.9L581.7,164.5L581.6,165.2L580.3,165.3L580.6,166.3L579.2,167.0L578.1,168.7L579.5,170.6L579.2,171.4ZM595.7,158.6L595.9,159.9L596.0,161.0L595.4,162.8L594.7,160.8L593.8,161.8L594.4,163.2L593.8,164.1L591.5,163.0L591.0,161.6L591.6,160.7L590.4,159.8L589.7,160.6L588.8,160.5L587.4,161.6L587.1,161.0L587.8,159.4L589.1,158.8L590.1,158.1L590.8,159.0L592.3,158.4L592.6,157.6L594.0,157.5L593.9,156.0L595.4,156.9L595.6,157.9L595.7,158.6ZM507.9,163.0L506.2,163.4L505.3,161.8L505.0,159.1L505.8,155.9L507.2,157.0L508.1,158.3L509.0,160.4L508.7,162.4L507.9,163.0ZM231.5,155.3L229.9,155.6L229.5,155.4L230.1,154.8L230.1,154.1L231.2,153.8L231.6,153.9L231.5,155.3ZM591.1,155.0L590.4,155.7L589.8,156.9L589.2,157.5L588.0,156.1L588.4,155.6L588.8,155.0L589.1,153.8L590.1,153.7L589.8,155.0L591.3,153.2L591.1,155.0ZM580.4,156.9L577.8,158.7L578.8,157.4L580.2,156.2L581.4,154.8L582.4,152.9L582.7,154.5L581.4,155.5L580.4,156.9ZM587.0,151.9L588.2,152.5L589.4,152.5L589.4,153.3L588.5,154.1L587.2,154.7L587.2,153.8L587.3,152.8L587.0,151.9ZM594.0,151.4L594.6,153.5L593.1,153.0L593.1,153.7L593.6,154.9L592.7,155.3L592.6,153.9L592.0,153.8L591.7,152.6L592.8,152.8L592.8,152.1L591.6,150.6L593.5,150.6L594.0,151.4ZM586.3,149.6L585.8,151.3L585.0,150.3L584.0,148.8L585.6,148.9L586.3,149.6ZM585.9,139.0L587.1,139.6L587.7,139.1L587.9,139.6L587.6,140.4L588.2,141.8L587.7,143.4L586.6,144.0L586.3,145.6L586.7,147.1L587.7,147.4L588.6,147.1L591.0,148.2L590.8,149.3L591.5,149.7L591.3,150.6L589.7,149.7L589.0,148.6L588.5,149.4L587.3,148.2L585.5,148.5L584.6,148.1L584.7,147.3L585.3,146.8L584.7,146.3L584.4,147.0L583.5,145.9L583.2,145.0L583.1,143.2L583.9,143.8L584.1,140.8L584.7,139.0L585.9,139.0ZM222.5,139.6L222.0,140.0L220.5,140.0L219.4,140.1L219.3,139.3L219.5,139.0L221.1,139.0L222.1,139.2L222.5,139.6ZM200.5,140.3L199.9,140.6L198.8,140.3L197.7,139.6L197.9,139.1L198.7,139.0L199.2,139.0L200.5,139.2L201.5,139.7L201.8,140.2L200.5,140.3ZM208.9,136.4L210.6,136.7L210.8,136.3L212.3,136.3L213.5,136.8L214.0,136.8L214.3,137.5L215.4,137.4L215.3,138.0L216.2,138.1L217.2,138.8L216.4,139.6L215.5,139.2L214.6,139.3L214.0,139.2L213.6,139.5L212.9,139.6L212.6,139.2L211.9,139.4L211.2,140.8L210.7,140.5L210.6,139.9L209.3,139.6L208.4,139.7L207.2,139.6L206.3,139.9L205.2,139.3L205.4,138.7L207.2,139.0L208.6,139.1L209.3,138.7L208.5,137.9L208.5,137.1L207.2,136.8L207.7,136.3L208.9,136.4ZM564.5,138.7L562.9,139.6L561.3,139.0L561.2,137.3L562.2,136.5L564.3,135.9L565.4,136.0L565.9,136.7L565.0,137.6L564.5,138.7ZM47.6,137.9L47.3,138.2L46.8,137.9L46.8,137.4L46.5,136.7L46.6,136.5L47.0,136.2L46.8,135.8L46.9,135.6L47.1,135.6L47.8,136.0L48.2,136.1L48.5,136.4L49.0,137.1L48.9,137.2L48.2,137.6L47.6,137.9ZM46.5,134.9L45.9,135.0L45.5,134.6L45.3,134.4L45.3,134.3L45.5,134.1L46.2,134.3L46.7,134.6L46.5,134.9ZM45.2,133.8L45.1,134.0L44.1,134.0L44.2,133.7L45.2,133.8ZM43.5,133.5L43.3,133.7L43.2,133.6L42.5,133.6L42.3,133.1L42.2,133.0L42.7,132.8L42.9,132.9L43.5,133.5ZM40.2,132.3L39.9,132.4L39.3,132.1L39.4,132.0L39.7,131.8L40.1,131.8L40.2,132.3ZM195.1,130.7L195.8,131.4L197.7,131.2L198.3,131.7L200.0,132.9L201.2,133.8L201.8,133.7L203.0,134.1L202.9,134.7L204.3,134.8L205.8,135.6L205.5,136.0L204.2,136.3L202.9,136.4L201.6,136.2L198.8,136.4L200.1,135.3L199.3,134.8L198.1,134.7L197.4,134.1L196.9,133.0L195.8,133.1L194.0,132.6L193.4,132.2L190.9,131.8L190.2,131.5L191.0,131.0L189.0,130.9L187.6,131.9L186.8,131.9L186.6,132.4L185.6,132.6L184.8,132.4L185.8,131.8L186.2,131.1L187.1,130.7L188.1,130.3L189.6,130.1L190.0,129.9L191.7,130.0L193.2,130.1L195.1,130.7ZM199.2,128.8L198.8,128.9L198.3,127.8L197.5,127.2L198.0,126.0L198.5,126.1L199.2,127.7L199.2,128.8ZM585.6,130.7L584.8,132.3L583.8,130.6L583.5,129.2L584.7,127.3L586.2,125.8L587.1,126.4L586.8,127.6L585.6,130.7ZM198.7,123.3L196.6,123.6L196.4,122.9L197.3,122.8L198.6,122.8L198.7,123.3ZM200.3,123.3L199.9,124.7L199.6,124.4L199.6,123.4L198.7,122.6L198.7,122.4L200.3,123.3ZM611.8,108.6L612.0,109.3L611.0,110.4L610.2,109.8L609.2,110.3L608.6,111.4L607.4,110.9L607.4,109.9L608.5,108.8L609.6,109.0L610.4,108.2L611.8,108.6ZM417.2,105.6L415.9,106.5L416.1,106.8L416.1,107.0L414.1,107.8L413.2,107.5L412.7,106.7L413.6,106.7L413.8,106.7L414.1,106.2L415.5,106.2L417.2,105.6ZM396.1,105.6L397.1,106.2L398.7,106.1L400.1,106.3L400.1,106.6L401.1,106.4L400.9,106.9L398.1,107.1L398.1,106.8L395.7,106.4L396.1,105.6ZM380.2,100.7L379.5,102.2L379.8,102.8L379.4,103.8L377.9,103.1L376.9,102.9L374.2,101.9L374.4,100.9L376.7,101.0L378.7,100.8L380.2,100.7ZM367.9,94.9L369.1,96.2L368.8,98.8L367.9,98.7L367.1,99.3L366.4,98.8L366.3,96.5L365.9,95.4L366.9,95.5L367.9,94.9ZM624.1,102.8L623.4,104.3L623.7,105.3L622.7,106.7L620.2,107.6L616.8,107.7L614.0,109.9L612.7,109.2L612.7,107.7L609.3,108.2L607.0,109.1L604.7,109.1L606.7,110.5L605.4,113.8L604.1,114.7L603.2,113.9L603.6,112.2L602.4,111.6L601.6,110.3L603.5,109.7L604.5,108.4L606.4,107.4L607.9,106.1L611.7,105.5L613.8,105.9L615.9,102.5L617.1,103.4L620.0,101.4L621.1,100.7L622.3,98.3L622.0,96.1L622.8,94.9L624.9,94.5L625.9,97.2L625.9,98.8L624.1,100.8L624.1,102.8ZM368.6,93.0L367.9,94.5L367.1,94.1L366.6,92.8L367.0,92.1L368.3,91.4L368.6,93.0ZM629.8,89.1L631.2,89.5L632.6,88.7L633.0,90.9L630.1,91.4L628.4,93.3L625.4,92.0L624.3,94.1L622.1,94.2L621.9,92.2L622.8,90.7L624.9,90.6L625.5,87.9L626.0,86.4L628.3,88.5L629.8,89.1ZM226.2,84.5L227.6,84.7L229.4,84.7L228.5,85.5L227.7,85.6L225.3,84.8L224.8,84.1L225.5,83.5L226.2,84.5ZM229.8,79.5L228.9,79.6L226.4,78.9L224.5,78.0L225.2,77.9L227.8,78.3L229.8,79.2L229.8,79.5ZM109.8,80.7L108.9,80.9L105.7,80.1L105.1,79.4L103.3,78.7L103.0,78.1L101.0,77.8L100.2,76.7L100.4,76.3L102.5,76.7L103.6,77.0L105.5,77.2L106.1,77.9L107.1,78.8L109.0,79.6L109.8,80.7ZM240.9,76.4L239.6,78.1L240.8,77.5L242.1,77.9L241.5,78.6L243.2,79.1L244.1,78.6L246.0,79.2L245.4,80.7L246.8,80.3L247.0,81.4L247.6,82.6L246.8,84.3L245.9,84.4L244.7,84.0L245.1,82.4L244.5,82.1L242.3,83.8L241.1,83.8L242.5,82.9L240.6,82.4L238.5,82.5L234.8,82.4L234.5,81.9L235.7,81.2L234.8,80.6L236.5,79.5L238.5,76.4L239.7,75.3L241.4,74.6L242.3,74.7L241.9,75.2L240.9,76.4ZM92.0,69.9L92.0,69.9L92.0,69.9L92.0,69.9L93.8,69.8L93.2,72.0L94.9,73.5L94.2,73.5L93.0,72.6L92.3,71.7L91.3,71.1L90.9,70.3L91.0,69.7L92.0,69.9ZM629.3,76.3L631.3,79.8L628.4,79.1L627.2,81.9L629.1,83.9L629.0,85.3L627.6,84.1L626.3,85.6L625.9,84.0L626.1,82.1L625.9,80.0L626.4,78.5L626.5,75.9L625.3,74.0L625.5,71.4L627.3,70.5L626.5,69.6L627.4,69.3L627.9,70.6L628.6,72.4L628.5,74.4L629.3,76.3ZM336.8,73.4L333.4,74.5L330.6,74.2L332.2,72.2L331.2,70.2L333.8,68.7L335.3,67.8L336.9,67.7L339.0,68.9L337.9,70.3L338.3,71.6L336.8,73.4ZM374.7,66.9L373.5,68.4L371.5,67.3L371.2,66.5L374.1,65.9L374.7,66.9ZM52.5,63.9L50.5,64.7L49.6,64.2L49.3,63.3L51.0,62.6L52.1,62.3L53.3,62.4L54.2,63.0L52.5,63.9ZM344.2,61.0L342.1,63.1L344.1,62.8L346.2,62.8L345.7,64.4L343.9,66.2L345.9,66.3L347.8,68.8L349.2,69.1L350.4,71.3L350.9,72.1L353.3,72.5L353.0,73.7L352.0,74.3L352.8,75.3L351.1,76.3L348.5,76.3L345.2,76.8L344.3,76.4L343.0,77.3L341.2,77.1L339.8,77.9L338.8,77.5L341.6,75.4L343.4,75.0L340.3,74.7L339.8,73.9L341.8,73.3L340.7,72.3L341.1,71.0L344.0,71.2L344.3,70.0L342.9,68.8L340.6,68.5L340.1,67.9L340.8,67.1L340.2,66.5L339.1,67.5L339.0,65.6L338.0,64.6L338.7,62.6L340.3,61.0L341.8,61.2L344.2,61.0ZM28.0,58.5L26.8,58.8L25.6,58.4L24.4,57.9L26.3,57.6L27.9,57.8L28.0,58.5ZM195.9,54.1L195.1,55.2L194.3,55.0L193.7,54.4L193.8,54.3L194.6,53.7L195.4,53.7L195.9,54.1ZM190.8,53.1L188.5,54.1L187.1,54.1L186.7,53.6L188.1,52.7L190.8,52.7L190.8,53.1ZM16.1,51.0L17.3,51.3L18.5,51.1L20.1,51.7L22.0,51.9L21.8,52.1L20.4,52.5L18.9,52.1L18.1,51.8L16.4,51.9L16.0,51.7L16.1,51.0ZM184.4,47.3L184.8,48.2L185.8,47.9L186.9,48.4L189.0,49.1L191.3,49.7L191.4,50.6L192.9,50.4L194.2,51.1L192.5,51.7L189.5,51.2L188.4,50.4L186.5,51.4L183.7,52.4L183.0,51.3L180.4,51.4L182.1,50.5L182.3,49.0L183.0,47.2L184.4,47.3ZM321.8,45.8L321.3,47.0L323.5,48.4L321.0,49.8L315.4,51.2L313.7,51.5L311.2,51.2L305.7,50.6L307.7,49.8L303.4,48.8L306.9,48.4L306.8,47.9L302.7,47.4L304.0,46.2L307.0,45.9L310.0,47.2L312.9,46.1L315.4,46.7L318.6,45.6L321.8,45.8ZM202.5,44.4L200.3,44.5L199.8,43.6L200.6,42.5L202.4,42.2L203.9,42.8L204.0,43.6L203.7,43.9L202.5,44.4ZM9.7,45.5L11.0,46.0L10.6,44.6L15.8,44.9L19.6,46.7L17.7,47.6L14.5,47.8L14.5,49.7L13.7,50.1L11.9,50.0L10.4,49.3L7.8,48.8L7.4,47.9L5.4,47.6L3.2,47.9L2.1,47.2L2.6,46.4L0.2,46.9L1.1,47.8L0.0,48.7L0.0,40.9L4.8,42.4L9.9,44.3L9.7,45.5ZM164.0,40.6L162.8,41.3L160.2,40.7L158.6,40.9L155.9,40.1L157.7,39.5L159.0,38.6L161.1,39.2L162.2,39.5L162.8,39.9L164.0,40.6ZM700.0,37.3L697.9,37.4L697.5,36.8L700.0,35.9L700.0,37.3ZM2.5,37.2L0.0,37.3L0.0,35.9L0.2,35.9L1.9,35.9L4.7,36.4L4.5,36.7L2.5,37.2ZM173.9,39.9L173.9,41.9L176.5,40.3L178.9,41.6L178.3,43.0L180.2,44.3L182.2,42.9L183.6,41.3L183.7,39.1L186.5,39.3L189.3,39.6L192.0,40.5L192.1,41.5L190.6,42.5L192.0,43.6L191.7,44.5L187.9,45.9L185.2,46.2L183.2,45.6L182.6,46.6L180.8,48.2L180.2,49.0L177.9,50.4L175.2,50.5L173.6,51.3L173.5,52.6L171.2,52.8L168.9,54.4L166.8,56.6L166.0,58.1L165.9,60.4L168.7,60.7L169.6,62.5L170.5,64.0L173.3,63.6L176.9,64.5L178.8,65.2L180.2,66.1L182.6,66.6L184.7,67.5L187.9,67.6L190.0,67.8L189.7,69.5L190.3,71.4L191.7,73.6L194.6,75.4L196.1,74.8L197.2,72.8L196.1,69.7L194.8,68.7L197.9,67.8L200.1,66.4L201.2,65.1L201.0,63.8L199.7,62.1L197.3,60.7L199.6,58.6L198.8,56.9L198.1,53.8L199.5,53.4L202.8,53.9L204.8,54.1L206.4,53.6L208.2,54.2L210.6,55.4L211.2,56.1L214.7,56.3L214.6,57.9L215.3,60.4L217.0,60.7L218.5,61.8L221.3,60.7L223.1,58.6L224.4,57.7L225.9,59.4L228.5,61.9L230.6,64.2L229.8,65.5L232.4,66.5L234.2,67.7L237.3,68.2L238.5,68.8L239.3,70.4L240.8,70.7L241.6,71.4L241.7,73.6L240.3,74.3L238.9,75.0L235.7,75.7L233.3,77.3L230.0,77.6L225.8,77.2L222.9,77.2L220.9,77.3L219.3,78.7L216.8,79.6L214.0,82.2L211.7,84.0L213.4,83.6L216.5,81.1L220.6,79.5L223.5,79.3L225.2,80.2L223.4,81.5L224.0,83.6L224.6,85.1L227.2,86.1L230.4,85.8L232.3,83.6L232.5,85.0L233.7,85.7L231.3,87.0L227.0,88.1L225.1,88.9L222.9,90.3L221.4,90.2L221.4,88.5L224.7,86.9L221.6,87.0L219.5,87.2L219.8,87.9L217.7,88.8L215.7,89.5L213.7,90.1L212.5,91.3L212.3,91.7L212.3,92.7L212.9,93.7L213.7,93.8L213.5,93.1L214.1,93.5L214.0,94.0L212.6,94.4L211.7,94.3L210.3,94.7L209.4,94.8L208.3,94.8L206.7,95.4L209.5,95.0L210.1,95.4L207.4,96.0L206.1,96.0L206.2,95.8L205.6,96.3L206.2,96.4L205.8,97.8L204.3,99.3L204.2,98.8L203.8,98.7L203.1,98.2L203.5,99.2L204.0,99.6L204.1,100.3L203.4,101.1L202.3,102.6L202.2,102.6L202.8,101.2L201.8,100.5L201.5,98.9L201.2,99.7L201.6,100.9L200.4,100.7L201.6,101.3L201.7,103.1L202.3,103.3L202.5,103.9L202.8,105.9L201.5,107.3L199.5,107.9L198.2,109.0L197.3,109.2L196.3,109.9L196.0,110.5L193.9,111.8L192.8,112.7L191.8,113.9L191.5,115.2L191.9,116.6L192.5,118.3L193.4,119.6L193.4,120.5L194.3,122.7L194.3,124.0L194.2,124.8L193.7,126.0L193.1,126.2L192.2,126.0L191.9,125.1L191.1,124.7L190.1,123.0L189.2,121.5L188.9,120.8L189.3,119.5L188.7,118.4L187.2,116.8L186.5,116.5L184.5,117.4L184.2,117.3L183.2,116.4L182.0,115.9L179.8,116.1L178.1,115.9L176.6,116.1L175.8,116.3L176.1,116.9L176.1,117.7L176.5,118.0L176.2,118.3L175.4,118.0L174.7,118.4L173.3,118.3L171.8,117.3L170.1,117.5L168.7,117.1L167.5,117.2L165.9,117.7L164.1,119.1L162.2,120.0L161.1,120.9L160.7,121.8L160.6,123.1L160.7,124.0L161.1,124.7L161.1,124.7L161.1,124.7L160.4,126.4L160.0,127.8L159.9,130.4L159.7,131.4L160.0,132.4L160.6,133.4L161.0,134.9L162.3,136.3L162.8,137.4L163.5,138.4L165.6,138.9L166.4,139.7L168.1,139.2L169.6,139.0L171.0,138.6L172.3,138.3L173.5,137.5L174.0,136.4L174.1,134.7L174.5,134.2L175.8,133.7L177.8,133.2L179.6,133.3L180.7,133.1L181.2,133.5L181.1,134.5L180.1,135.6L179.6,136.8L180.0,137.1L179.7,138.0L179.2,139.5L178.7,139.0L178.3,139.0L178.3,139.3L178.7,139.3L178.6,139.9L178.3,140.7L178.5,141.0L178.3,141.7L178.4,141.9L178.2,142.9L177.8,143.4L177.5,143.4L177.1,144.1L177.7,144.5L177.9,144.2L178.5,144.4L178.7,144.5L179.1,144.2L179.6,144.1L179.8,144.3L180.1,144.2L181.0,144.4L181.9,144.3L182.5,144.1L182.8,143.9L183.4,144.0L183.9,144.1L184.4,144.1L184.8,143.9L185.6,144.2L186.0,144.2L186.5,144.6L187.1,145.0L187.8,145.3L188.3,145.8L188.2,146.0L188.1,146.5L188.3,147.2L187.8,147.8L187.6,148.6L187.5,149.5L187.6,150.0L187.7,150.9L187.4,151.0L187.2,151.9L187.3,152.4L186.9,152.9L187.0,153.4L187.3,153.7L187.8,154.8L188.6,155.6L189.5,156.4L190.2,157.1L190.2,157.5L190.9,157.6L191.1,157.4L191.6,157.9L192.6,157.8L193.4,157.3L194.6,156.9L195.3,156.3L196.3,156.4L196.3,156.6L197.4,156.7L198.2,157.0L198.9,157.6L199.6,158.1L200.6,158.2L202.1,156.8L202.9,156.6L202.9,156.0L203.2,154.4L204.3,153.4L205.6,153.4L205.7,153.0L207.2,153.2L208.8,152.2L209.5,151.8L210.5,150.8L211.2,150.9L211.7,151.4L211.3,152.1L211.2,152.6L210.1,152.8L210.7,153.7L210.7,154.7L209.9,155.8L210.6,157.4L211.4,157.2L211.9,155.8L211.3,155.1L211.2,153.7L213.6,152.9L213.3,152.0L214.0,151.4L214.7,152.7L216.1,152.7L217.3,153.8L217.4,154.5L219.1,154.5L221.2,154.3L222.3,155.2L223.8,155.4L224.9,154.8L224.9,154.3L227.3,154.2L229.7,154.2L228.0,154.7L228.7,155.7L230.2,155.8L231.7,156.8L232.0,158.3L233.0,158.3L233.8,158.7L235.1,159.4L236.3,160.7L236.3,161.7L237.1,161.8L238.1,162.7L238.9,163.4L241.2,163.8L241.4,163.4L243.0,163.3L245.1,163.8L245.7,164.0L247.2,164.5L249.2,166.1L249.6,166.9L250.2,166.8L250.7,167.9L251.8,171.3L252.8,171.6L252.9,173.0L251.4,174.6L252.0,175.2L255.5,175.5L255.5,177.4L257.0,176.1L259.5,176.8L262.7,178.0L263.6,179.2L263.3,180.2L265.6,179.6L269.4,180.7L272.3,180.6L275.1,182.2L277.6,184.4L279.1,184.9L280.8,185.0L281.5,185.6L282.1,188.1L282.5,189.3L281.7,192.5L280.7,193.8L278.0,196.5L276.7,198.7L275.3,200.4L274.8,200.4L274.3,201.8L274.4,205.5L273.9,208.5L273.6,209.7L273.0,210.5L272.7,213.1L270.7,215.6L270.4,217.7L268.8,218.5L268.4,219.7L266.2,219.7L263.2,220.4L261.8,221.3L259.6,221.8L257.3,223.4L255.7,225.3L255.4,226.8L255.7,227.8L255.4,229.8L254.9,230.8L253.6,231.8L251.4,235.2L249.7,236.8L248.4,237.7L247.5,239.5L246.2,240.7L245.4,241.9L243.2,243.0L241.7,242.6L240.7,242.8L238.9,241.9L237.6,242.0L236.4,240.9L236.3,242.0L238.7,243.6L238.5,245.0L239.7,245.8L239.6,246.8L237.7,249.2L234.8,250.3L230.9,250.7L228.8,250.5L229.2,251.7L228.8,253.1L229.2,254.1L228.0,254.8L226.0,255.0L224.1,254.3L223.4,254.8L223.7,256.8L225.0,257.4L226.0,256.8L226.6,257.8L224.8,258.4L223.3,259.6L223.0,261.5L222.5,262.6L220.7,262.6L219.2,263.6L218.6,265.0L220.5,266.5L222.4,266.8L221.7,268.6L219.4,269.7L218.1,272.0L216.4,272.7L215.6,273.6L216.2,275.7L217.5,276.8L216.7,276.7L214.9,276.7L214.0,277.2L212.2,277.9L211.9,279.7L211.1,279.7L208.9,279.1L206.7,277.7L204.3,276.6L203.7,275.4L204.2,274.3L203.2,273.0L203.0,269.6L203.8,267.8L205.9,266.3L202.9,265.7L204.8,264.0L205.4,260.8L207.6,261.4L208.6,257.4L207.3,256.9L206.7,259.3L205.5,259.0L206.1,256.3L206.7,252.7L207.6,251.3L207.1,249.4L206.9,247.2L207.7,247.2L208.9,244.0L210.3,240.9L211.1,238.0L210.6,235.1L211.2,233.5L211.0,231.1L212.1,228.7L212.5,225.0L213.1,220.9L213.7,216.6L213.6,213.4L213.2,210.7L211.2,209.6L211.0,208.8L207.2,206.8L203.7,204.7L202.2,203.5L201.4,201.9L201.7,201.3L200.1,198.8L198.2,195.2L196.3,191.3L195.5,190.4L194.9,189.0L193.4,187.7L192.0,186.9L192.6,186.1L191.7,184.2L192.3,182.8L193.9,181.6L194.9,180.2L194.5,179.3L193.7,180.2L192.6,179.4L193.0,178.8L192.6,177.1L193.3,176.8L193.7,175.6L194.4,174.3L194.3,173.5L195.3,173.1L196.7,172.3L196.4,171.7L197.1,171.6L197.0,170.6L197.5,169.9L198.5,169.8L199.3,168.5L200.0,167.5L199.3,167.1L199.7,165.9L199.2,164.1L199.7,163.6L199.4,162.0L198.6,161.0L197.9,160.4L197.5,159.3L198.0,158.8L197.5,158.7L197.1,158.0L196.2,157.5L195.3,157.6L194.9,158.3L194.1,158.8L193.7,158.9L193.5,159.3L194.4,160.3L193.9,160.6L193.6,160.9L192.7,161.0L192.4,159.8L192.1,160.1L191.5,160.0L191.1,159.2L190.3,159.1L189.8,158.9L189.0,158.9L188.9,159.3L188.7,159.0L187.6,158.6L187.2,158.2L187.5,157.8L187.4,157.4L186.8,156.9L186.1,156.6L185.4,156.3L185.3,155.7L184.8,155.4L184.9,156.0L184.5,156.4L184.1,155.9L183.4,155.7L183.2,155.3L183.2,154.7L183.4,154.1L182.9,153.8L183.3,153.4L182.7,152.8L181.8,152.0L181.3,151.4L180.5,150.8L179.5,149.9L179.7,149.6L180.1,149.9L180.2,149.8L179.9,149.1L179.3,149.0L179.1,149.4L177.9,149.4L177.2,149.2L176.4,148.8L175.4,148.7L174.8,148.3L173.8,148.0L172.6,147.9L171.7,147.5L170.7,146.7L168.5,144.6L167.5,144.0L165.9,143.5L164.8,143.6L163.2,144.4L162.2,144.6L160.9,144.1L159.4,143.7L157.6,142.8L156.1,142.5L153.9,141.6L152.3,140.7L151.8,140.2L150.7,140.0L148.7,139.4L147.9,138.5L145.8,137.4L144.9,136.2L144.4,135.3L145.1,135.1L144.9,134.5L145.3,134.0L145.3,133.3L144.7,132.5L144.5,131.7L143.8,130.7L142.1,128.8L140.2,127.3L139.2,126.1L137.5,125.3L137.2,124.8L137.5,123.6L136.5,123.1L135.3,122.2L134.9,120.8L133.8,120.7L132.7,119.6L131.8,118.7L131.7,118.1L130.6,116.6L130.0,115.1L130.0,114.4L128.6,113.6L127.9,113.7L126.8,113.2L126.5,114.0L126.8,114.9L127.0,116.4L127.7,117.2L129.1,118.5L129.5,118.9L129.7,119.1L130.0,119.8L130.4,119.7L130.7,121.0L131.3,121.5L131.7,122.2L133.0,123.2L133.6,125.0L134.2,125.8L134.7,126.7L134.8,127.8L135.8,127.8L136.6,128.7L137.3,129.6L137.2,129.9L136.4,130.6L136.1,130.6L135.5,129.4L134.3,128.3L132.9,127.4L131.9,126.9L131.9,125.5L131.6,124.4L130.7,123.8L129.4,123.0L129.1,123.2L128.6,122.7L127.4,122.2L126.3,121.1L126.4,120.9L127.2,121.1L127.9,120.3L128.0,119.5L126.5,118.1L125.4,117.5L124.7,116.3L123.9,115.0L123.0,113.5L122.3,111.7L121.9,110.7L120.7,109.6L119.8,109.4L119.5,108.8L118.5,108.7L117.8,108.2L116.0,108.0L115.5,107.7L115.2,106.6L113.3,104.7L111.7,102.0L111.8,101.5L110.9,100.9L109.4,99.3L109.2,97.7L108.1,96.6L108.5,95.0L108.5,93.3L107.9,91.8L108.6,90.0L109.1,86.5L108.7,83.9L108.1,82.2L107.6,81.3L107.8,80.9L110.6,81.6L111.6,83.4L112.1,82.9L111.8,81.3L111.1,79.7L110.9,79.7L107.1,77.8L105.7,77.0L102.2,76.2L101.1,74.4L101.4,73.2L98.9,72.4L98.6,70.9L96.2,69.4L96.2,68.4L95.1,67.7L93.4,67.1L92.8,65.4L90.3,63.8L89.3,62.0L87.4,61.9L84.3,61.8L82.1,61.2L78.0,59.2L76.2,58.9L72.8,58.2L70.1,58.3L66.3,57.4L63.9,56.6L61.8,57.0L62.2,58.4L61.1,58.5L58.9,58.9L57.2,59.6L55.0,60.0L54.7,58.8L55.6,56.9L57.7,56.3L57.1,55.8L54.6,56.9L53.3,58.2L50.5,59.6L51.9,60.5L50.1,61.9L48.0,62.8L46.1,63.3L45.6,64.2L42.5,65.2L41.9,66.1L39.7,67.0L38.3,66.8L36.5,67.3L34.5,68.0L32.9,68.7L29.6,69.2L29.3,68.9L31.4,68.0L33.3,67.4L35.4,66.3L37.8,66.1L38.8,65.3L41.4,64.1L41.9,63.7L43.3,63.1L43.7,61.6L44.6,60.4L42.4,61.0L41.8,60.7L40.7,61.4L39.4,60.4L38.9,61.1L38.2,60.1L36.3,60.9L35.1,60.9L34.9,59.8L35.2,59.0L34.0,58.4L31.5,58.7L29.8,57.8L28.5,57.3L28.5,56.2L27.0,55.4L27.7,54.3L29.3,53.2L30.0,52.2L31.6,52.1L32.9,52.4L34.5,51.4L35.9,51.6L37.4,51.0L37.0,50.1L35.9,49.8L37.4,49.0L36.2,49.0L34.1,49.5L33.5,49.9L32.0,49.5L29.2,49.7L26.4,49.2L25.6,48.4L23.1,47.3L25.9,46.5L30.2,45.5L31.8,45.5L31.5,46.5L35.6,46.4L34.0,45.2L31.7,44.5L30.3,43.5L28.4,42.7L25.7,42.1L26.8,41.1L30.3,41.0L32.7,40.1L33.2,39.2L35.2,38.2L37.1,38.0L40.8,37.2L42.5,37.3L45.5,36.2L48.5,36.7L49.9,37.5L50.7,37.2L54.0,37.3L53.9,37.7L56.9,38.1L58.9,37.9L63.0,38.5L66.7,38.7L68.2,38.9L70.8,38.6L73.7,39.2L75.9,39.4L79.5,39.9L82.5,40.9L84.6,41.0L86.3,40.2L88.6,39.6L91.5,39.9L94.4,39.0L97.6,38.5L99.0,39.3L100.4,38.9L100.8,37.9L102.2,38.2L105.5,39.9L108.1,38.6L108.3,40.1L110.7,39.7L111.4,39.2L113.8,39.3L116.8,40.1L121.3,40.8L124.0,41.1L125.9,41.0L128.5,42.0L125.8,43.0L129.3,43.4L134.6,43.2L136.2,42.8L138.3,44.0L140.4,43.0L138.4,42.2L139.7,41.5L142.0,41.4L143.6,41.2L145.2,41.7L147.1,42.7L149.3,42.6L152.7,43.5L155.7,43.2L158.6,43.2L158.4,42.0L160.1,41.7L163.1,42.3L163.1,44.2L164.3,42.6L165.9,42.7L166.8,40.7L164.7,39.5L162.4,38.7L162.6,36.6L164.9,35.2L167.4,35.5L169.4,36.3L172.0,38.5L170.3,39.5L173.9,39.9ZM128.0,32.8L127.0,33.7L131.4,33.1L134.1,34.1L136.3,33.1L138.0,33.8L139.6,35.7L140.6,34.9L139.2,32.9L140.9,32.6L142.9,32.9L145.1,33.7L146.3,35.6L146.9,37.0L150.1,37.9L153.6,38.8L153.4,39.7L150.2,39.9L151.5,40.6L150.8,41.3L147.3,41.0L144.0,40.5L141.7,40.6L138.1,41.3L132.3,41.6L129.7,41.7L128.6,40.8L126.0,40.3L124.2,40.5L121.8,39.0L123.1,38.8L126.1,38.4L128.9,38.5L131.4,38.2L127.7,37.7L123.5,37.9L120.7,37.8L119.7,37.1L124.2,36.3L121.2,36.4L117.8,35.9L119.5,34.4L120.8,33.6L126.0,32.4L128.0,32.8ZM146.8,32.2L145.1,33.5L142.1,32.2L142.7,31.9L145.3,31.8L146.8,32.2ZM201.6,32.9L201.7,33.4L199.7,33.3L197.6,33.3L195.4,33.6L194.9,33.4L192.7,32.4L192.8,31.7L193.8,31.6L198.2,31.8L201.6,32.9ZM181.7,32.7L183.2,34.0L185.0,32.4L189.9,31.6L193.3,33.6L193.0,34.9L196.8,34.3L198.7,33.5L203.0,34.5L205.7,35.5L205.9,36.3L209.5,35.9L211.6,37.1L216.2,37.9L217.9,38.7L219.8,40.5L216.2,41.4L220.8,42.6L223.9,43.1L226.7,44.9L229.7,45.0L229.1,46.4L225.7,48.6L223.3,47.8L220.3,45.9L217.7,46.2L217.5,47.3L219.5,48.4L222.2,49.3L223.0,49.8L224.3,51.7L223.6,53.1L221.1,52.6L216.3,51.1L219.0,52.7L221.0,53.9L221.3,54.6L216.1,53.8L211.9,52.7L209.5,51.7L210.2,51.2L207.3,50.2L204.5,49.2L204.5,49.8L198.9,50.1L197.3,49.4L198.5,48.0L202.2,48.0L206.2,47.7L205.5,47.0L206.2,46.1L208.7,44.2L208.2,43.3L207.4,42.6L204.5,41.7L200.5,41.0L201.8,40.5L199.7,39.3L198.0,39.2L196.5,38.6L195.4,39.1L191.9,39.4L184.8,39.0L180.7,38.4L177.6,38.1L175.9,37.4L178.0,36.5L175.2,36.5L174.6,34.5L176.1,32.8L178.1,32.0L183.1,31.5L181.7,32.7ZM154.9,31.4L157.2,31.8L160.7,31.6L161.2,32.1L159.3,33.1L162.3,33.9L161.9,35.7L158.7,36.4L156.9,36.3L155.5,35.5L150.7,34.0L150.7,33.4L154.7,33.6L152.6,32.4L154.9,31.4ZM629.2,32.6L626.3,32.7L622.3,32.4L622.0,32.3L623.8,31.6L626.2,31.4L629.0,32.1L629.2,32.6ZM168.8,33.5L166.7,35.0L164.5,34.9L163.3,33.2L163.3,32.2L164.3,31.4L166.2,30.8L170.3,30.9L174.0,31.4L171.1,33.1L168.8,33.5ZM115.8,36.2L110.7,37.1L109.6,36.3L105.1,35.3L105.8,34.6L107.3,33.0L109.0,31.7L107.1,30.5L113.7,30.2L116.5,30.6L121.4,30.7L123.3,31.3L125.4,32.1L123.0,32.6L118.2,34.0L115.8,35.4L115.8,36.2ZM643.1,29.0L640.8,29.8L637.7,29.6L634.1,28.8L634.6,28.2L638.2,28.5L643.1,29.0ZM168.0,29.2L166.9,30.0L164.1,29.8L161.7,29.3L162.8,28.4L165.6,27.9L167.3,28.6L168.0,29.2ZM632.1,28.1L630.6,29.5L623.4,29.5L620.2,29.9L616.3,28.7L617.4,27.3L619.9,27.0L625.1,27.0L632.1,28.1ZM158.5,25.8L160.0,26.7L160.0,27.7L159.1,29.2L155.9,29.4L153.8,29.1L153.9,27.9L150.7,28.1L150.6,26.6L152.7,26.6L155.6,26.0L158.3,26.1L158.5,25.8ZM139.6,26.8L140.4,27.5L142.1,27.2L144.1,27.3L144.5,28.2L143.3,29.2L136.7,29.5L131.8,30.3L128.8,30.3L128.6,29.7L132.6,28.9L123.8,29.1L121.1,28.7L123.8,26.8L125.6,26.3L131.1,26.9L134.5,28.1L137.9,28.2L135.1,26.4L136.9,25.7L138.9,25.9L139.6,26.8ZM461.9,37.5L460.7,37.7L454.4,37.4L453.9,36.5L450.3,36.0L450.1,35.0L452.0,34.6L452.0,33.5L455.8,31.8L454.0,31.6L458.7,29.9L458.2,29.0L462.5,28.0L468.9,26.7L475.4,26.4L478.7,25.6L482.5,25.4L483.9,26.2L482.6,26.8L475.7,27.7L469.7,28.7L463.7,30.5L460.8,32.4L457.8,34.3L458.2,35.9L461.9,37.5ZM165.9,25.1L168.1,25.7L171.9,25.7L173.6,26.3L173.1,27.1L175.3,27.5L176.6,28.0L179.2,28.1L182.0,28.2L185.1,27.8L189.1,27.6L192.3,27.8L194.3,28.5L194.8,29.3L193.6,29.8L190.7,30.3L188.2,30.0L182.6,30.3L178.6,30.3L175.5,30.1L170.3,29.5L169.6,28.4L169.4,27.5L167.4,26.6L163.4,26.4L161.2,25.8L161.9,25.0L165.9,25.1ZM124.1,24.0L123.8,25.5L122.3,26.2L120.5,26.3L116.9,27.1L113.8,27.4L111.1,27.0L111.1,27.0L114.4,25.5L118.4,24.3L121.4,24.3L124.1,24.0ZM558.0,25.3L558.5,26.3L560.3,25.8L566.0,25.8L570.4,26.8L571.9,27.5L571.4,28.5L569.3,29.1L564.2,30.2L562.7,30.8L565.1,31.0L568.0,31.5L569.8,31.2L570.8,32.4L571.6,31.9L574.7,31.6L581.0,31.9L581.4,32.8L589.6,33.1L589.7,31.6L593.8,32.0L596.9,32.0L600.0,33.0L600.9,34.2L599.8,35.0L602.2,36.6L605.3,37.4L607.2,35.3L610.3,36.2L613.6,35.7L617.4,36.3L618.8,35.7L622.0,36.0L620.6,34.2L623.1,33.3L640.7,34.6L642.3,35.8L647.4,37.3L655.3,36.9L659.2,37.2L660.8,38.0L660.5,39.4L662.9,40.0L665.5,39.6L669.0,39.5L672.7,39.9L676.3,39.7L679.7,41.4L682.1,40.8L680.6,39.6L681.4,38.7L687.6,39.2L691.7,39.1L697.3,40.1L700.0,40.9L700.0,48.7L700.0,48.7L697.5,49.5L695.0,49.4L696.7,50.4L697.9,52.0L698.8,52.5L699.0,53.3L698.5,53.9L694.9,53.4L689.4,54.9L687.7,55.1L684.7,56.5L681.9,57.7L681.2,58.6L678.4,57.2L673.4,58.7L672.5,58.0L670.6,58.9L668.0,58.6L667.4,59.9L665.0,61.7L665.1,62.5L667.3,63.0L667.1,65.8L665.3,65.9L664.4,67.5L665.2,68.3L661.8,69.3L661.2,71.6L658.3,72.0L657.7,74.0L654.9,75.8L654.2,74.5L653.3,71.6L652.2,67.3L653.2,64.6L654.8,63.5L654.9,62.5L657.9,62.1L661.4,59.7L664.8,57.7L668.2,56.1L669.8,53.4L667.4,53.5L666.3,55.1L661.3,57.3L659.8,54.9L654.7,55.5L649.9,58.8L651.5,60.0L647.1,60.5L644.1,60.7L644.3,59.3L641.2,59.0L638.8,60.0L632.9,59.6L626.5,60.2L620.2,64.0L612.7,68.6L615.8,68.8L616.8,70.0L618.7,70.5L619.9,69.5L622.0,69.6L624.8,71.8L624.9,73.4L623.4,75.4L623.2,77.7L622.3,80.8L619.4,83.6L618.8,85.0L616.1,87.2L613.5,89.5L612.2,90.6L609.7,91.8L608.4,91.8L607.2,90.8L604.6,92.3L604.3,92.9L603.6,92.8L602.7,93.4L602.1,94.1L602.2,95.5L601.2,95.9L600.9,96.3L600.1,96.9L598.8,97.2L598.0,97.7L597.9,98.5L597.7,98.8L598.5,99.1L599.6,99.9L601.2,102.2L601.7,103.5L601.7,105.7L601.0,106.8L599.3,107.2L597.7,108.0L595.9,108.1L595.7,107.1L596.1,105.6L595.2,103.6L596.7,103.3L595.3,101.6L594.4,101.2L594.2,101.6L593.6,101.8L593.5,101.4L593.0,101.2L592.5,100.9L593.0,100.0L593.5,99.8L593.3,99.5L593.8,98.4L593.7,98.1L592.5,97.9L591.6,97.4L588.9,97.9L587.5,98.8L585.4,99.4L586.4,98.5L586.0,97.7L587.6,96.4L586.5,95.4L584.8,96.1L582.6,97.4L581.4,98.7L579.5,98.8L578.5,99.7L579.6,101.0L581.2,101.3L581.2,102.2L582.8,102.8L584.9,101.4L586.7,102.1L587.9,102.2L588.2,103.2L585.5,103.7L584.6,104.8L582.7,105.8L581.7,107.1L583.8,108.2L584.5,110.1L585.7,111.9L587.0,113.4L587.0,114.8L585.8,115.4L586.3,116.4L587.4,117.0L587.1,118.6L586.6,120.1L585.5,120.3L584.1,122.4L582.5,124.9L580.7,127.3L578.0,129.1L575.3,130.7L573.2,130.9L572.0,131.8L571.3,131.2L570.2,132.1L567.5,133.1L565.4,133.4L564.8,135.4L563.7,135.6L563.2,134.2L563.6,133.4L561.0,132.8L560.1,133.1L557.5,134.8L555.9,136.6L555.5,137.9L556.9,140.0L558.8,142.5L560.5,143.7L561.7,145.3L562.6,148.9L562.3,152.3L560.7,153.6L558.5,154.8L556.9,156.5L554.5,158.3L553.8,157.0L554.3,155.7L552.9,154.6L551.2,154.3L550.5,153.3L549.5,151.3L547.7,150.4L546.1,150.4L546.3,148.9L544.6,148.9L544.5,151.1L543.4,153.9L542.8,155.6L542.9,157.0L544.2,157.1L545.0,158.9L545.3,160.6L546.4,161.7L547.6,161.9L548.6,162.9L549.1,163.1L550.2,164.3L551.0,165.6L551.1,166.9L550.9,167.8L551.1,168.4L551.3,169.6L551.9,170.1L552.7,171.8L552.7,172.5L551.3,172.6L549.4,171.2L547.1,169.6L546.9,168.6L545.8,167.3L545.5,165.7L544.8,164.7L545.0,163.3L544.6,162.4L543.8,161.7L543.5,160.7L542.5,159.6L541.5,158.7L541.2,159.8L540.8,158.8L541.1,157.6L541.6,155.7L541.4,154.2L542.0,152.8L541.4,151.6L541.5,149.5L540.8,148.5L540.1,146.1L539.8,143.7L538.9,142.1L537.7,143.1L535.4,144.4L534.3,144.3L533.1,143.8L533.8,141.4L533.4,139.6L531.9,137.3L532.1,136.6L531.0,136.4L529.6,134.8L529.1,133.8L528.9,132.8L528.6,131.9L527.8,130.7L526.0,130.7L526.1,131.5L525.5,132.5L524.7,132.1L524.4,132.5L523.9,132.3L523.1,132.1L522.8,132.8L521.5,132.8L519.1,133.2L519.2,134.7L518.2,135.8L515.4,137.1L513.2,139.4L511.8,140.6L509.8,141.9L509.8,142.8L508.8,143.3L507.1,144.0L506.2,144.1L505.6,145.6L506.0,148.1L506.1,149.7L505.3,151.6L505.3,154.9L504.3,155.0L503.4,156.4L504.0,157.1L502.2,157.6L501.6,159.0L500.8,159.5L498.9,157.7L498.0,155.0L497.3,153.0L496.6,152.1L495.6,150.2L495.1,147.8L494.8,146.6L493.0,143.9L492.2,140.1L491.6,137.7L491.6,135.3L491.2,133.5L488.4,134.6L487.0,134.4L484.5,132.0L485.4,131.3L484.8,130.6L482.6,128.9L481.1,128.4L480.6,127.0L479.1,125.6L475.5,125.9L472.3,126.0L469.6,126.2L465.9,125.6L463.8,125.2L461.6,125.0L460.8,122.6L459.8,122.2L458.4,122.6L456.4,123.5L454.0,122.9L452.1,121.4L450.2,120.8L448.9,119.0L447.4,116.4L446.4,116.7L445.2,116.1L444.4,116.8L443.3,116.7L443.7,117.6L443.5,118.0L444.1,119.5L444.9,121.2L445.9,121.6L446.2,122.3L447.5,123.1L447.6,123.9L447.4,124.6L447.7,125.2L448.2,125.8L448.5,126.4L448.8,126.9L448.7,125.5L449.2,124.4L449.7,124.2L450.3,124.8L450.3,126.0L449.9,127.1L450.3,127.9L450.6,127.8L450.7,128.3L452.2,128.0L453.8,128.0L455.0,128.1L456.3,126.8L457.8,125.5L459.0,124.3L459.6,123.7L459.8,123.8L459.7,124.6L459.4,125.0L459.7,126.5L460.5,127.9L461.6,128.6L463.0,128.8L464.2,129.2L465.1,130.3L465.6,130.9L466.3,131.2L466.3,131.6L465.6,132.8L465.3,133.3L464.5,133.9L463.7,135.3L462.8,135.2L462.4,135.6L462.1,136.6L462.4,137.9L462.2,138.2L461.3,138.2L460.1,138.9L459.9,139.8L459.4,140.2L458.2,140.2L457.5,140.7L457.5,141.5L456.5,142.0L455.5,141.9L454.2,142.5L453.3,142.6L451.9,143.1L451.5,144.0L451.4,144.7L449.5,145.5L446.4,146.4L444.7,147.8L443.8,147.9L443.2,147.8L442.1,148.6L440.8,148.9L439.2,149.0L438.7,149.2L438.3,149.7L437.8,149.8L437.5,150.3L436.5,150.3L435.9,150.5L434.6,150.4L434.0,149.3L434.1,148.2L433.8,147.7L433.4,146.2L432.8,145.4L433.2,145.3L433.0,144.4L433.3,144.1L433.2,143.2L432.9,142.4L432.3,141.8L432.2,141.0L431.2,140.3L430.2,138.7L429.6,137.1L428.3,135.8L427.4,135.5L426.1,133.6L425.9,132.2L426.0,131.1L424.8,128.9L423.9,128.2L422.9,127.8L422.2,126.7L422.4,126.2L421.8,125.2L421.2,124.8L420.5,123.3L419.3,121.8L418.3,120.4L417.3,120.4L417.6,119.4L417.7,118.7L418.0,117.9L417.9,117.6L417.4,118.4L416.9,119.9L416.4,120.9L416.0,121.2L415.3,120.6L414.4,119.7L413.0,117.0L412.8,117.1L413.7,119.2L414.8,121.1L416.3,124.2L417.0,125.2L417.7,126.3L419.4,128.5L419.0,128.8L419.1,130.1L421.3,131.8L421.7,132.2L422.3,134.1L421.9,134.5L422.2,136.5L422.9,138.8L423.6,139.3L424.7,140.0L425.8,142.3L426.4,144.0L427.4,145.0L430.1,146.8L431.2,147.9L432.2,149.1L432.8,149.7L433.8,150.3L434.2,150.9L434.2,151.7L433.1,152.2L433.9,152.7L434.5,153.1L434.9,153.9L435.8,154.7L436.8,154.7L438.6,154.2L440.7,154.0L442.4,153.4L443.4,153.2L444.1,152.9L445.2,152.8L445.8,152.8L446.7,152.5L447.7,152.3L448.6,151.6L449.4,151.6L449.4,152.2L449.2,153.3L449.3,154.3L448.8,155.0L448.3,157.1L447.4,159.3L446.2,161.8L444.5,164.6L442.8,166.8L440.5,169.4L438.6,171.0L435.7,173.0L433.9,174.4L431.7,176.8L431.3,177.8L430.9,178.3L429.5,179.0L429.0,179.9L428.3,180.0L428.0,181.4L427.4,182.2L427.0,183.5L426.2,184.1L425.3,186.5L425.4,187.6L426.7,188.3L426.7,188.8L426.2,190.0L426.3,190.6L426.2,191.5L426.9,192.7L427.7,194.6L428.4,195.1L428.7,195.9L428.6,197.9L428.9,199.6L428.9,202.6L429.3,203.6L428.7,205.0L428.0,206.3L426.7,207.5L424.9,208.3L422.7,209.2L420.5,211.3L419.8,211.6L418.4,213.0L417.6,213.5L417.5,214.9L418.4,216.3L418.8,217.5L418.8,218.1L419.1,218.0L419.1,219.9L418.8,220.8L419.2,221.1L418.9,221.9L418.1,222.6L416.5,223.3L414.2,224.3L413.3,225.0L413.5,225.8L414.0,226.0L413.8,227.0L413.4,228.4L413.1,230.0L412.6,230.9L411.3,231.9L410.9,232.2L410.1,233.2L409.5,234.2L408.4,235.6L406.2,237.6L404.9,238.7L403.4,239.6L401.4,240.4L400.4,240.5L400.1,241.0L398.9,240.7L398.0,241.1L395.9,240.7L394.7,240.9L393.9,240.8L391.9,241.6L390.2,241.9L389.0,242.7L388.1,242.7L387.3,242.0L386.7,242.0L385.8,241.1L385.7,241.4L385.5,240.9L385.5,239.7L384.9,238.4L385.5,238.1L385.4,236.6L384.2,234.7L383.2,233.1L383.2,233.1L381.8,230.6L380.3,229.1L379.6,227.7L379.1,225.8L378.7,224.4L378.0,221.4L378.0,219.1L377.7,218.0L377.0,217.2L376.0,215.6L374.9,213.3L374.5,212.0L372.9,210.1L372.8,208.6L372.6,207.4L372.9,205.7L373.6,203.9L373.7,203.1L374.3,201.3L374.8,200.5L375.9,199.3L376.5,198.4L376.7,197.0L376.6,195.9L376.0,195.2L375.5,194.0L375.0,192.8L375.1,192.4L375.7,191.6L375.1,189.8L374.7,188.5L373.8,187.2L374.0,186.9L373.7,186.3L373.2,184.8L371.6,182.7L369.6,180.8L368.3,179.2L367.1,177.2L367.2,176.5L367.6,175.9L368.1,174.5L368.5,173.0L368.1,172.7L368.8,170.6L369.0,169.0L368.3,167.7L367.4,167.4L367.0,166.5L366.5,166.3L366.5,165.7L364.5,166.4L363.8,166.3L363.0,166.8L361.5,166.7L360.4,165.5L359.8,164.1L358.4,162.8L356.9,162.8L355.2,162.8L353.6,163.1L352.1,163.5L349.0,164.6L347.9,165.3L346.2,165.8L344.4,165.3L343.6,165.3L342.2,164.9L341.0,165.0L338.7,165.3L337.3,165.9L335.4,166.6L335.0,166.5L334.5,166.5L332.5,165.6L330.7,164.1L329.1,163.1L327.8,161.8L327.2,161.7L325.8,160.9L324.8,159.8L324.5,159.1L324.2,157.7L323.4,156.5L322.6,155.8L322.1,155.5L321.7,155.1L321.4,154.3L321.1,153.9L320.6,153.5L319.5,152.7L318.7,152.6L318.3,152.0L318.3,151.7L317.7,151.3L317.6,150.9L317.3,149.4L317.5,148.6L316.7,147.1L315.7,146.4L316.6,146.0L317.5,144.6L318.0,143.6L317.8,142.6L318.4,141.6L318.6,139.8L318.4,137.9L318.2,136.9L318.3,135.9L317.8,135.0L316.8,134.2L316.9,133.3L317.0,132.4L317.7,131.9L318.4,130.9L318.3,130.2L318.9,128.9L320.0,127.6L320.7,127.3L321.2,126.2L321.2,125.2L321.9,123.9L323.2,123.2L324.5,121.3L325.5,120.5L327.3,120.3L328.8,118.9L329.8,118.4L331.4,116.8L330.9,114.4L331.7,112.7L331.9,111.7L333.2,110.4L335.1,109.5L336.6,108.7L337.9,106.7L338.5,105.5L339.9,105.5L341.1,106.3L342.9,106.2L344.9,106.6L345.8,106.6L347.6,105.6L349.8,105.2L351.0,104.4L352.9,103.8L356.1,103.5L359.4,103.3L360.3,103.6L362.2,102.8L364.3,102.8L365.0,103.3L366.4,103.2L368.5,102.4L369.9,102.6L369.8,103.6L371.4,102.9L371.6,103.2L370.6,104.2L370.6,105.1L371.3,105.6L371.0,107.3L369.7,108.2L370.1,109.3L371.1,109.3L371.6,110.3L372.3,110.6L374.6,111.2L375.4,111.1L377.1,111.4L379.6,112.3L380.6,114.0L382.3,114.4L385.0,115.2L387.1,116.1L388.1,115.6L389.0,114.7L388.5,113.3L389.1,112.3L390.6,111.4L391.9,111.1L394.5,111.5L395.2,112.4L395.9,112.4L396.5,112.7L398.5,113.0L398.9,113.6L401.5,113.6L403.4,114.1L405.3,114.7L406.2,115.0L407.7,114.4L408.5,113.8L410.2,113.6L411.6,113.9L412.1,114.9L412.6,114.2L414.2,114.7L415.7,114.8L416.6,114.3L417.2,113.7L417.1,113.5L417.6,112.6L418.0,111.2L418.2,110.7L418.3,110.7L419.0,109.1L420.0,107.7L420.0,107.6L419.8,106.1L420.3,105.3L419.6,104.5L420.3,103.7L419.1,103.9L417.5,103.5L416.2,104.6L413.2,104.8L411.6,103.7L409.5,103.7L409.1,104.5L407.8,104.7L405.9,103.7L403.7,103.7L402.6,101.8L401.2,100.7L402.1,99.2L400.9,98.3L403.0,96.4L406.0,96.3L406.9,94.8L410.6,95.1L412.9,93.8L415.2,93.3L418.4,93.3L421.8,94.6L424.6,95.4L426.8,95.1L428.5,95.3L430.8,94.2L431.1,93.4L430.6,92.1L429.5,91.4L428.4,91.1L427.7,90.5L425.2,88.9L423.0,88.2L421.3,87.0L422.7,86.7L424.3,85.1L423.3,84.3L426.1,83.5L426.1,83.1L424.3,83.4L422.8,83.6L421.5,84.2L419.7,84.3L418.0,85.0L418.1,86.2L419.0,86.7L421.0,86.6L420.7,87.3L418.5,87.6L415.9,88.7L414.8,88.3L415.2,87.4L413.1,86.9L413.4,86.5L415.3,85.8L414.7,85.4L411.7,84.9L411.6,84.2L409.8,84.4L409.1,85.5L407.6,86.9L407.6,87.4L406.7,87.8L406.1,87.7L405.5,90.0L404.5,90.8L403.8,92.2L404.4,93.3L404.7,94.1L406.4,94.7L406.0,95.2L403.7,95.3L402.9,95.9L401.3,96.9L400.6,96.0L400.7,95.6L399.5,95.6L398.5,95.4L396.1,95.9L397.5,97.0L396.5,97.3L395.4,97.3L394.4,96.3L394.0,96.7L394.4,97.9L395.4,98.8L394.7,99.2L395.8,100.1L396.7,100.7L396.7,101.8L394.9,101.3L395.5,102.3L394.3,102.5L395.0,104.2L393.7,104.2L392.1,103.4L391.4,101.8L391.1,100.5L390.3,99.6L389.3,98.5L389.2,98.0L388.9,97.8L388.8,97.4L387.7,96.7L387.6,95.8L387.7,94.5L388.0,93.9L387.7,93.6L387.3,93.4L386.7,92.8L385.9,92.4L384.0,91.7L382.9,91.0L381.1,90.4L379.5,89.0L379.9,88.8L379.0,88.0L379.0,87.4L377.7,87.0L377.1,87.9L376.6,87.2L376.6,86.6L376.7,86.5L377.1,86.4L375.6,86.1L374.0,86.8L374.1,87.7L373.8,88.3L374.5,89.3L376.3,90.2L377.3,91.9L379.4,93.4L381.0,93.4L381.4,93.8L380.9,94.2L382.6,94.9L384.1,95.5L385.7,96.5L385.9,96.9L385.6,97.6L384.5,96.7L382.8,96.4L382.0,97.6L383.4,98.3L383.2,99.4L382.3,99.5L381.3,101.1L380.5,101.3L380.5,100.7L380.9,99.7L381.3,99.2L380.6,98.1L380.0,97.1L379.2,96.9L378.6,96.0L377.3,95.7L376.5,94.9L375.1,94.8L373.5,93.9L371.8,92.6L370.4,91.5L369.8,89.6L368.9,89.4L367.3,88.7L366.4,89.0L365.3,89.9L364.5,90.0L362.7,91.1L358.9,90.6L356.0,91.2L355.8,92.4L355.9,93.5L354.1,94.8L351.6,95.2L351.4,95.9L350.2,97.0L349.5,98.6L350.2,99.7L349.1,100.5L348.7,101.8L347.2,102.2L345.8,103.7L343.4,103.7L341.5,103.7L340.3,104.4L339.5,105.1L338.6,104.9L337.9,104.3L337.3,103.2L335.5,102.9L334.7,103.4L333.7,103.1L332.7,103.3L333.0,101.8L332.8,100.6L331.9,100.4L331.5,99.7L331.6,98.4L332.4,97.7L332.5,96.9L332.9,95.7L332.9,94.9L332.5,94.2L332.4,93.6L332.5,92.2L331.7,91.3L334.5,89.9L336.9,90.3L339.5,90.3L341.5,90.6L343.2,90.5L346.3,90.6L347.3,89.4L347.7,85.5L345.7,83.5L344.2,82.5L341.3,81.8L341.1,80.3L343.6,79.9L346.9,80.4L346.2,78.2L348.1,79.0L352.6,77.5L353.2,75.9L354.9,75.5L356.4,75.2L357.4,74.6L359.2,71.8L361.8,71.0L363.4,71.0L363.8,70.6L365.4,70.5L365.8,70.9L367.1,70.0L366.7,69.2L366.6,68.1L365.8,67.0L365.7,65.1L366.1,64.5L366.6,64.0L368.3,63.8L369.0,63.3L370.6,62.7L370.5,63.7L369.9,64.4L370.2,64.9L371.2,65.2L370.7,66.0L370.2,65.7L368.8,67.1L369.3,68.1L369.3,68.8L371.3,69.3L371.3,70.0L373.2,69.6L374.3,69.1L376.5,69.9L377.5,70.5L378.8,69.9L381.8,69.0L384.3,68.3L386.2,68.7L386.4,69.1L388.2,69.2L388.7,68.3L391.4,67.7L390.9,66.1L391.0,64.6L392.0,63.4L393.8,62.7L395.3,64.2L396.9,64.1L397.3,62.6L397.5,61.5L396.8,61.7L395.6,61.0L395.4,59.9L397.8,59.4L400.3,59.1L402.4,59.4L404.4,59.4L406.6,58.3L404.6,57.4L401.1,57.5L397.6,58.2L394.5,58.6L393.3,57.6L391.5,56.9L391.9,55.0L390.9,53.3L391.9,52.1L393.6,50.9L398.1,48.8L399.4,48.4L399.2,47.6L396.5,46.7L393.1,47.2L391.2,48.6L391.6,49.8L388.5,51.3L384.7,53.0L383.3,55.7L384.7,57.1L386.5,58.2L384.7,60.4L382.7,60.8L382.0,64.1L380.9,65.9L378.5,65.7L377.4,67.3L375.2,67.4L374.5,65.5L372.9,63.3L371.4,60.6L370.1,59.4L366.3,61.6L363.7,62.1L361.0,61.1L360.3,59.0L359.7,54.5L361.5,53.2L366.6,51.6L370.5,49.6L374.0,46.9L378.7,43.1L382.0,41.7L387.3,39.2L391.6,38.4L394.8,38.5L397.7,36.9L401.3,37.0L404.8,36.6L410.8,38.0L408.3,38.5L410.5,39.7L412.5,39.1L415.7,40.2L421.0,40.7L428.3,42.9L429.8,43.8L430.0,45.1L427.8,46.1L424.6,46.7L416.0,45.2L414.5,45.4L417.7,46.9L417.9,49.7L420.4,50.3L422.0,50.8L422.2,49.9L421.0,49.0L422.3,48.3L427.0,49.5L428.6,49.1L427.3,47.6L431.8,45.7L433.6,45.9L435.5,46.5L436.6,45.2L435.0,44.0L435.9,42.9L434.5,41.7L439.9,42.3L441.0,43.4L438.6,43.6L438.6,44.7L440.1,45.4L443.1,44.9L443.6,43.7L447.7,42.8L454.5,41.1L455.9,41.2L454.0,42.4L456.4,42.6L457.8,41.9L461.4,41.9L464.3,41.1L466.6,42.2L468.8,40.9L466.7,39.8L467.7,39.2L473.5,39.8L476.2,40.4L483.2,42.6L484.5,41.6L482.5,40.6L482.5,40.1L480.1,39.9L480.8,39.0L479.7,37.5L479.7,36.9L483.3,35.1L484.5,33.4L486.0,33.0L491.1,33.5L491.5,34.6L489.7,36.1L490.9,36.8L491.5,38.1L491.1,40.8L493.2,42.0L492.4,43.3L488.6,46.0L490.8,46.3L491.6,45.6L493.7,45.1L494.3,44.2L495.9,43.2L494.8,42.1L495.7,40.9L493.6,40.7L493.1,39.6L494.7,37.7L492.1,36.1L495.6,34.8L495.2,33.4L496.1,33.3L497.2,34.4L496.4,36.3L498.5,36.6L497.6,35.2L500.8,34.5L504.9,34.4L508.5,35.5L506.7,33.9L506.5,31.8L509.9,31.4L514.6,31.5L518.8,31.2L517.2,30.2L519.5,28.9L521.7,28.9L525.5,27.9L530.6,27.7L531.3,27.1L536.4,26.9L538.0,27.4L542.3,26.4L545.9,26.4L546.5,25.5L548.3,24.7L552.9,23.9L556.2,24.6L553.6,25.0L558.0,25.3ZM445.5,94.7L446.5,96.1L447.4,96.2L448.0,96.7L446.4,96.9L446.0,98.4L445.7,99.1L445.0,99.5L445.1,100.5L445.7,101.9L447.5,102.3L448.9,103.3L451.6,103.6L454.7,103.1L454.8,102.7L454.5,101.3L454.8,99.3L453.3,98.6L453.8,97.3L452.5,97.2L452.9,95.5L454.7,96.0L456.4,95.4L455.0,94.2L454.5,93.1L452.9,93.6L452.7,95.0L452.1,93.8L452.0,93.3L452.5,92.5L452.1,91.8L449.8,91.1L449.0,89.4L447.9,88.9L447.8,88.3L449.7,88.4L449.8,87.0L451.4,86.7L453.1,87.0L453.5,85.1L453.1,83.9L451.2,84.0L449.5,83.5L447.3,84.4L445.5,84.8L444.6,85.9L442.7,86.3L440.8,88.3L442.5,90.1L442.3,91.4L444.5,93.7L445.5,94.7ZM167.5,24.3L166.6,24.3L163.0,24.2L162.5,23.7L166.4,23.7L167.8,24.0L167.5,24.3ZM135.7,23.9L132.1,24.5L129.2,23.9L130.8,23.2L133.7,23.0L136.4,23.3L135.7,23.9ZM398.1,23.6L393.7,24.4L390.3,24.0L391.6,23.5L390.5,22.8L394.5,22.4L395.3,23.2L398.1,23.6ZM136.8,22.2L134.4,22.5L131.2,22.5L131.2,22.3L133.2,21.7L134.2,21.8L136.8,22.2ZM163.7,23.2L160.8,23.6L159.2,23.2L158.4,22.4L158.2,21.6L160.7,21.7L161.9,21.8L164.2,22.5L163.7,23.2ZM155.4,22.7L156.2,23.5L153.0,23.3L149.8,22.7L145.5,22.6L147.4,22.0L145.0,21.5L144.9,20.8L148.7,21.1L154.0,21.8L155.4,22.7ZM554.3,22.7L543.4,23.5L546.9,20.9L548.5,20.7L550.0,20.8L554.9,21.9L554.3,22.7ZM385.5,20.0L391.9,21.5L387.0,22.2L385.9,23.7L384.2,24.0L383.3,25.6L380.9,25.7L376.8,24.5L378.5,23.8L375.6,23.3L371.8,21.6L370.3,20.1L375.6,19.4L376.7,20.1L379.4,20.1L380.2,19.4L383.0,19.3L385.5,20.0ZM399.5,18.7L403.3,19.3L400.4,20.4L394.8,20.6L389.0,20.3L388.7,19.8L385.9,19.7L383.8,18.8L389.8,18.3L392.6,18.7L394.6,18.2L399.5,18.7ZM449.4,18.4L446.8,18.6L445.1,18.8L444.8,19.1L442.5,19.4L440.4,19.0L441.5,18.4L437.2,18.3L441.0,17.9L444.0,17.9L444.3,18.4L445.5,18.0L447.3,17.7L450.2,18.1L449.4,18.4ZM544.3,21.6L540.1,21.9L534.7,21.3L531.4,20.6L529.9,19.2L527.3,18.8L532.3,17.5L536.6,17.0L540.3,18.0L544.8,19.9L544.3,21.6ZM180.8,20.1L183.1,20.7L180.5,21.3L176.9,22.8L173.4,22.9L169.4,22.7L167.3,21.9L167.3,21.2L168.9,20.6L165.3,20.7L163.2,20.0L162.0,19.1L163.3,18.3L164.6,17.7L166.6,17.5L165.8,17.1L170.3,17.0L172.8,18.0L176.1,18.5L179.3,18.8L180.8,20.1ZM216.8,13.4L222.0,13.6L226.2,13.8L229.7,14.3L229.7,14.9L224.9,15.7L220.2,16.1L218.4,16.5L222.7,16.5L218.1,17.7L214.9,18.2L211.6,19.8L207.6,20.2L206.3,20.6L200.5,20.8L203.1,21.0L201.8,21.4L203.4,22.3L201.6,23.0L198.6,23.5L197.6,24.3L194.9,24.9L195.2,25.3L198.5,25.2L198.5,25.7L193.4,26.9L188.3,26.3L182.6,26.6L179.7,26.4L176.0,26.3L175.7,25.4L179.3,24.9L178.4,23.5L179.6,23.4L184.8,24.2L182.1,23.0L179.0,22.6L180.5,21.9L184.0,21.4L184.5,20.7L181.8,20.0L181.0,19.0L186.3,19.0L187.8,19.3L190.9,18.5L186.5,18.3L179.7,18.4L176.2,17.8L174.6,17.0L172.3,16.4L171.9,15.8L174.8,15.4L177.1,15.3L180.9,15.0L183.8,14.3L186.2,14.4L188.3,14.9L189.7,13.9L192.3,13.6L195.8,13.4L201.7,13.3L202.8,13.5L208.4,13.2L212.6,13.3L216.8,13.4ZM297.3,12.6L309.5,14.1L305.9,14.9L298.4,15.0L288.0,15.2L289.0,15.5L295.8,15.3L301.7,16.0L305.5,15.4L307.1,16.1L304.9,17.2L309.9,16.5L319.3,15.7L325.2,16.1L326.3,16.9L318.3,18.3L317.2,18.8L311.0,19.1L315.5,19.2L313.2,20.6L311.7,21.9L311.7,24.0L314.1,25.3L311.0,25.4L307.8,26.0L311.4,27.0L311.9,28.7L309.8,28.9L312.3,30.5L308.0,30.7L310.3,31.5L309.6,32.2L306.9,32.5L304.2,32.5L306.6,33.8L306.6,34.6L302.8,33.8L301.8,34.4L304.4,34.8L307.0,36.0L307.7,37.6L304.2,38.0L302.7,37.2L300.3,36.1L301.0,37.4L298.7,38.4L303.9,38.5L306.5,38.6L301.3,40.3L296.0,41.9L290.4,42.5L288.2,42.5L286.2,43.3L283.5,45.3L279.3,46.7L278.0,46.8L275.4,47.3L272.6,47.7L270.9,48.9L270.9,50.3L269.9,51.6L266.7,53.1L267.5,54.6L266.6,56.2L265.7,58.1L262.9,58.3L260.0,56.7L256.2,56.7L254.3,55.6L253.0,53.7L249.6,51.3L248.6,50.0L248.4,48.3L245.7,46.5L246.4,45.0L245.1,44.4L247.0,42.1L249.9,41.4L250.7,40.5L251.1,39.0L248.9,39.7L247.8,40.0L246.1,40.3L243.7,39.6L243.5,38.3L244.3,37.3L246.1,37.3L250.1,37.8L246.7,36.5L245.0,35.9L243.1,36.2L241.4,35.7L243.6,33.9L242.4,33.1L240.9,31.8L238.5,29.7L236.1,29.0L236.1,28.2L230.9,27.0L226.7,26.9L221.5,27.0L216.8,27.1L214.5,26.5L211.2,25.3L216.3,24.6L220.2,24.5L211.9,24.0L207.5,23.2L207.7,22.5L215.1,21.6L222.2,20.6L223.0,19.9L217.7,19.2L219.4,18.4L226.2,17.1L229.0,16.9L228.2,16.0L232.8,15.5L238.8,15.2L244.7,15.2L246.9,15.8L252.0,14.7L256.7,15.4L259.4,15.6L263.4,16.2L258.8,15.2L259.1,14.3L265.6,13.2L272.4,13.3L274.9,12.5L281.8,12.4L297.3,12.6Z" fill="#8fbc8f" fill-opacity="0.3" stroke="#8fbc8f" stroke-opacity="0.5" stroke-width="0.4"/></svg>